<mxfile host="app.diagrams.net" modified="2023-10-17T09:29:04.553Z" agent="Mozilla/5.0 (Windows NT 10.0; Win64; x64) AppleWebKit/537.36 (KHTML, like Gecko) Chrome/117.0.0.0 Safari/537.36" version="22.0.4" etag="AVINcWku3F8GEuAKJQT3" type="github">
  <diagram name="Page-1" id="FRgsT3vk9EBqucHDM2_R">
    <mxGraphModel>
      <root>
        <mxCell id="0" />
        <mxCell id="1" parent="0" />
      </root>
    </mxGraphModel>
  </diagram>
</mxfile>
